<?xml version="1.0" standalone="no"?>
<!DOCTYPE svg PUBLIC "-//W3C//DTD SVG 20010904//EN"
 "http://www.w3.org/TR/2001/REC-SVG-20010904/DTD/svg10.dtd">
<svg version="1.0" xmlns="http://www.w3.org/2000/svg"
 width="260.000000pt" height="260.000000pt" viewBox="0 0 260.000000 260.000000"
 preserveAspectRatio="xMidYMid meet">
<metadata>
Created by potrace 1.11, written by Peter Selinger 2001-2013
</metadata>
<g transform="translate(0.000000,260.000000) scale(0.100000,-0.100000)"
fill="#000000" stroke="none">
<path d="M200 1300 l0 -1100 1100 0 1100 0 0 1100 0 1100 -1100 0 -1100 0 0
-1100z m911 553 c101 -157 188 -286 194 -286 5 0 92 129 193 287 l184 286 234
0 233 0 -196 -297 c-108 -164 -249 -379 -315 -479 l-118 -181 0 -346 0 -347
-215 0 -215 0 0 347 0 346 -118 181 c-66 100 -207 315 -315 479 l-196 297 233
0 233 0 184 -287z"/>
</g>
</svg>
