<?xml version="1.0" standalone="no"?>
<!DOCTYPE svg PUBLIC "-//W3C//DTD SVG 20010904//EN"
 "http://www.w3.org/TR/2001/REC-SVG-20010904/DTD/svg10.dtd">
<svg version="1.0" xmlns="http://www.w3.org/2000/svg"
 width="192.000000pt" height="192.000000pt" viewBox="0 0 192.000000 192.000000"
 preserveAspectRatio="xMidYMid meet">
<metadata>
Created by potrace 1.16, written by Peter Selinger 2001-2019
</metadata>
<g transform="translate(0.000000,192.000000) scale(0.100000,-0.100000)"
fill="#000000" stroke="none">
<path d="M1059 1488 c-233 -220 -300 -279 -309 -273 -8 5 -33 47 -121 212
l-39 71 -263 4 c-144 2 -266 1 -271 -3 -7 -6 72 -156 160 -304 50 -85 21 -14
-42 100 -36 66 -75 137 -85 158 l-19 37 254 0 255 0 82 -150 c46 -82 88 -150
94 -150 5 0 89 75 185 166 224 211 267 254 257 254 -4 0 -66 -55 -138 -122z"/>
<path d="M488 1259 c-17 -18 -17 -19 8 -19 34 0 29 -31 -6 -41 -21 -6 -19 -7
15 -9 l40 -2 -36 -7 c-20 -4 -81 -9 -135 -10 -54 -1 -100 -3 -101 -5 -4 -3 38
-83 62 -120 9 -13 33 -32 53 -41 20 -9 45 -20 55 -26 10 -5 60 -10 111 -10 78
0 108 5 199 35 59 20 118 42 130 51 12 8 27 15 34 15 7 0 42 13 77 30 36 16
78 32 93 36 15 4 39 15 52 26 13 10 29 18 35 18 6 0 20 7 30 15 17 13 16 14
-20 11 -21 -2 -79 -4 -129 -5 -53 -1 -85 -5 -77 -10 21 -13 -53 -28 -150 -30
-50 -1 -89 2 -92 8 -4 6 -13 8 -20 5 -8 -3 -17 -1 -21 5 -3 6 1 11 10 11 13 0
14 4 5 20 -8 15 -21 20 -48 20 -21 0 -62 11 -90 25 -61 29 -62 29 -84 4z"/>
<path d="M935 960 c-62 -20 -215 -65 -320 -94 -33 -10 -89 -20 -125 -24 -65
-7 -65 -7 -74 -44 -5 -21 -7 -41 -4 -44 4 -3 46 -1 95 5 48 6 150 11 225 11
130 0 138 1 153 23 15 20 16 20 12 2 -49 -185 -62 -226 -65 -208 -2 15 -12 23
-30 26 -24 4 -24 4 6 6 20 0 32 6 32 15 0 19 -139 29 -322 25 l-138 -4 -37
-119 c-20 -65 -39 -113 -41 -106 -3 7 -15 -20 -28 -60 -12 -40 -28 -76 -34
-80 -5 -3 -11 -24 -13 -46 l-2 -39 262 -3 c256 -2 262 -2 273 18 6 12 11 40
11 63 0 51 46 248 61 262 8 7 9 4 4 -10 -5 -13 -4 -16 2 -10 6 6 15 30 20 55
44 188 72 270 105 302 18 18 28 30 23 26 -6 -5 -15 -8 -20 -8 -6 0 8 18 29 40
46 47 36 50 -60 20z"/>
</g>
</svg>
